<?xml version="1.0" encoding="utf-8"?>
<!-- Generator: Adobe Illustrator 27.4.0, SVG Export Plug-In . SVG Version: 6.00 Build 0)  -->
<svg version="1.1" id="Warstwa_1" xmlns="http://www.w3.org/2000/svg" xmlns:xlink="http://www.w3.org/1999/xlink" x="0px" y="0px"
	 viewBox="0 0 1233 280" style="enable-background:new 0 0 1233 280;" xml:space="preserve">
<style type="text/css">
	.st0{filter:url(#Adobe_OpacityMaskFilter);}
	.st1{mask:url(#SVGID_1_);}
	.st2{fill:url(#SVGID_00000050641624135752294070000007460643902303451539_);}
	.st3{fill:url(#SVGID_00000135667194944329391670000007852679246464020398_);}
	.st4{fill:url(#SVGID_00000132802810102226416560000001092329418475419047_);}
	.st5{fill:url(#SVGID_00000016068636832079124840000010686832309460678812_);}
	.st6{fill:url(#SVGID_00000168821856101736332130000004550876954772394423_);}
	.st7{fill:url(#SVGID_00000109004486833372140680000001511609777265736587_);}
	.st8{fill:url(#SVGID_00000037671752125159227900000006095665605924213150_);}
	.st9{fill:url(#SVGID_00000143591518749591682500000006720536117839927983_);}
</style>
<g>
	<g>
		<g>
			<path d="M287.65,253.9c-17.21,0-33.76-2.31-49.63-6.91c-15.88-4.61-28.63-10.6-38.26-17.98l16.9-37.49
				c9.01,6.56,19.87,11.94,32.57,16.13c12.7,4.2,25.5,6.3,38.41,6.3c9.83,0,17.77-1.02,23.82-3.07c6.04-2.05,10.5-4.76,13.37-8.14
				c2.87-3.38,4.3-7.32,4.3-11.83c0-5.73-2.26-10.29-6.76-13.68c-4.51-3.38-10.5-6.15-17.98-8.3c-7.48-2.15-15.62-4.2-24.43-6.15
				c-8.81-1.95-17.67-4.3-26.58-7.07s-17.11-6.45-24.58-11.06c-7.48-4.61-13.42-10.65-17.82-18.13c-4.41-7.48-6.61-16.85-6.61-28.12
				c0-12.29,3.28-23.51,9.83-33.65c6.56-10.14,16.54-18.23,29.96-24.28c13.41-6.04,30.27-9.07,50.55-9.07
				c13.52,0,26.89,1.64,40.1,4.92c13.21,3.28,24.74,7.99,34.57,14.14l-15.67,37.49c-9.63-5.53-19.57-9.68-29.81-12.45
				c-10.25-2.77-20.08-4.15-29.5-4.15c-9.83,0-17.72,1.08-23.66,3.23c-5.94,2.15-10.29,5.07-13.06,8.76
				c-2.77,3.69-4.15,7.79-4.15,12.29c0,5.74,2.25,10.35,6.76,13.83c4.5,3.49,10.45,6.2,17.82,8.14c7.38,1.95,15.57,3.89,24.59,5.84
				c9.01,1.95,17.92,4.35,26.73,7.22c8.81,2.87,16.9,6.51,24.28,10.91c7.37,4.41,13.37,10.35,17.98,17.82
				c4.61,7.48,6.91,16.75,6.91,27.81c0,12.09-3.33,23.15-9.99,33.19c-6.66,10.04-16.75,18.13-30.27,24.28
				C324.84,250.83,307.93,253.9,287.65,253.9z"/>
			<path d="M491.39,252.68c-18.85,0-35.34-3.69-49.47-11.06c-14.14-7.37-25.1-17.46-32.88-30.27c-7.79-12.8-11.68-27.4-11.68-43.79
				c0-16.39,3.73-31.04,11.22-43.94c7.48-12.91,17.92-22.99,31.35-30.27c13.41-7.27,28.53-10.91,45.33-10.91
				c16.18,0,30.78,3.49,43.79,10.45c13.01,6.97,23.3,16.8,30.88,29.5c7.58,12.71,11.37,27.96,11.37,45.79c0,1.84-0.1,3.95-0.31,6.3
				c-0.21,2.36-0.41,4.56-0.61,6.61H436.07v-27.96h109.09l-18.74,8.3c0.2-8.6-1.44-16.08-4.92-22.43
				c-3.49-6.35-8.3-11.32-14.44-14.9c-6.15-3.58-13.32-5.38-21.51-5.38c-8.2,0-15.42,1.8-21.66,5.38
				c-6.25,3.59-11.12,8.6-14.6,15.06c-3.49,6.45-5.22,14.09-5.22,22.89v7.38c0,9.22,2.05,17.21,6.15,23.97
				c4.1,6.76,9.73,11.94,16.9,15.52c7.17,3.59,15.77,5.38,25.81,5.38c8.6,0,16.23-1.33,22.9-4c6.65-2.66,12.75-6.65,18.28-11.98
				l25.51,27.66c-7.58,8.6-17.11,15.21-28.58,19.82C519.55,250.37,506.34,252.68,491.39,252.68z"/>
			<path d="M703.73,82.43c13.11,0,24.84,2.61,35.19,7.84c10.34,5.22,18.48,13.21,24.43,23.97c5.94,10.76,8.91,24.54,8.91,41.33
				v94.65h-47.94v-87.27c0-13.31-2.92-23.15-8.76-29.5c-5.84-6.35-14.09-9.53-24.74-9.53c-7.58,0-14.4,1.64-20.44,4.92
				c-6.04,3.28-10.76,8.1-14.14,14.44c-3.38,6.35-5.07,14.75-5.07,25.2v81.74h-47.94V84.89h45.79v45.79l-8.6-13.83
				c5.94-11.06,14.44-19.56,25.51-25.51C677,85.4,689.6,82.43,703.73,82.43z"/>
			<path d="M839.56,61.84c-9.02,0-16.29-2.56-21.82-7.68c-5.53-5.12-8.3-11.47-8.3-19.05c0-7.58,2.76-13.93,8.3-19.05
				c5.53-5.12,12.8-7.68,21.82-7.68c8.81,0,16.03,2.41,21.66,7.22c5.63,4.82,8.45,11.01,8.45,18.59c0,7.99-2.77,14.6-8.3,19.82
				C855.84,59.23,848.57,61.84,839.56,61.84z M815.59,250.22V84.89h47.94v165.33H815.59z"/>
			<path d="M986.44,252.68c-17.41,0-32.93-3.69-46.55-11.06c-13.63-7.37-24.33-17.46-32.11-30.27c-7.79-12.8-11.68-27.4-11.68-43.79
				c0-16.59,3.89-31.29,11.68-44.1c7.78-12.8,18.49-22.84,32.11-30.11c13.62-7.27,29.14-10.91,46.55-10.91
				c17.62,0,33.29,3.64,47.02,10.91c13.72,7.27,24.48,17.31,32.27,30.11c7.78,12.81,11.68,27.5,11.68,44.1s-3.9,31.24-11.68,43.94
				c-7.79,12.71-18.54,22.74-32.27,30.12C1019.73,248.99,1004.06,252.68,986.44,252.68z M986.44,213.34
				c8.19,0,15.41-1.79,21.67-5.38c6.25-3.58,11.26-8.86,15.06-15.83c3.79-6.96,5.68-15.16,5.68-24.58c0-9.63-1.9-17.82-5.68-24.58
				c-3.79-6.76-8.81-11.93-15.06-15.52c-6.25-3.58-13.37-5.38-21.36-5.38c-7.99,0-15.16,1.8-21.51,5.38
				c-6.35,3.59-11.42,8.76-15.21,15.52c-3.79,6.76-5.69,14.96-5.69,24.58c0,9.43,1.89,17.62,5.69,24.58
				c3.79,6.97,8.86,12.24,15.21,15.83C971.59,211.55,978.65,213.34,986.44,213.34z"/>
			<path d="M1109.36,250.22V84.89h45.79v47.02l-6.45-13.83c4.92-11.68,12.8-20.54,23.66-26.58c10.85-6.04,24.07-9.07,39.64-9.07
				v44.56c-1.84-0.41-3.64-0.72-5.38-0.92c-1.74-0.2-3.43-0.31-5.07-0.31c-13.52,0-24.28,3.79-32.27,11.37
				c-7.99,7.58-11.98,19.26-11.98,35.03v78.05H1109.36z"/>
			<defs>
				<filter id="Adobe_OpacityMaskFilter" filterUnits="userSpaceOnUse" x="17.69" y="83.97" width="167.79" height="168.4">
					<feFlood  style="flood-color:white;flood-opacity:1" result="back"/>
					<feBlend  in="SourceGraphic" in2="back" mode="normal"/>
				</filter>
			</defs>
			<mask maskUnits="userSpaceOnUse" x="17.69" y="83.97" width="167.79" height="168.4" id="SVGID_1_">
				<g class="st0">
				</g>
			</mask>
			<g class="st1">
				<g>
					<path d="M108.35,252.37c-18.23,0-34.16-3.63-47.78-10.91c-13.63-7.27-24.18-17.21-31.65-29.81
						c-7.48-12.6-11.22-27.09-11.22-43.48c0-16.39,3.63-30.88,10.91-43.48c7.27-12.6,17.31-22.53,30.12-29.81
						c12.8-7.27,27.4-10.91,43.79-10.91c15.98,0,30.22,3.53,42.72,10.6c12.49,7.07,22.33,16.96,29.5,29.65
						c7.17,12.71,10.76,27.76,10.76,45.17c0,1.43-0.05,3.23-0.15,5.38c-0.11,2.15-0.26,4.05-0.46,5.69H48.12v-25.51h116.47
						l-15.37,7.99c0.2-9.22-1.69-17.46-5.68-24.74c-4-7.27-9.48-12.91-16.44-16.9c-6.97-4-15.16-5.99-24.58-5.99
						c-9.22,0-17.47,2-24.74,5.99c-7.27,3.99-12.86,9.68-16.75,17.06c-3.89,7.37-5.84,15.88-5.84,25.51v6.15
						c0,9.83,2.2,18.54,6.61,26.12c4.4,7.58,10.7,13.47,18.9,17.67c8.19,4.2,17.72,6.3,28.58,6.3c9.22,0,17.51-1.54,24.89-4.61
						c7.38-3.07,13.93-7.58,19.67-13.52l20.9,23.97c-7.58,8.6-16.96,15.16-28.12,19.67C135.44,250.12,122.68,252.37,108.35,252.37z"
						/>
				</g>
				<g>
					<path d="M108.35,252.37c-18.23,0-34.16-3.63-47.78-10.91c-13.63-7.27-24.18-17.21-31.65-29.81
						c-7.48-12.6-11.22-27.09-11.22-43.48c0-16.39,3.63-30.88,10.91-43.48c7.27-12.6,17.31-22.53,30.12-29.81
						c12.8-7.27,27.4-10.91,43.79-10.91c15.98,0,30.22,3.53,42.72,10.6c12.49,7.07,22.33,16.96,29.5,29.65
						c7.17,12.71,10.76,27.76,10.76,45.17c0,1.43-0.05,3.23-0.15,5.38c-0.11,2.15-0.26,4.05-0.46,5.69H48.12v-25.51h116.47
						l-15.37,7.99c0.2-9.22-1.69-17.46-5.68-24.74c-4-7.27-9.48-12.91-16.44-16.9c-6.97-4-15.16-5.99-24.58-5.99
						c-9.22,0-17.47,2-24.74,5.99c-7.27,3.99-12.86,9.68-16.75,17.06c-3.89,7.37-5.84,15.88-5.84,25.51v6.15
						c0,9.83,2.2,18.54,6.61,26.12c4.4,7.58,10.7,13.47,18.9,17.67c8.19,4.2,17.72,6.3,28.58,6.3c9.22,0,17.51-1.54,24.89-4.61
						c7.38-3.07,13.93-7.58,19.67-13.52l20.9,23.97c-7.58,8.6-16.96,15.16-28.12,19.67C135.44,250.12,122.68,252.37,108.35,252.37z"
						/>
				</g>
			</g>
		</g>
		<g>
			
				<linearGradient id="SVGID_00000000907237130347919610000018222956474453268926_" gradientUnits="userSpaceOnUse" x1="17.6924" y1="131.1387" x2="1212" y2="131.1387">
				<stop  offset="0" style="stop-color:#2F4550"/>
				<stop  offset="1" style="stop-color:#586F7C"/>
			</linearGradient>
			<path style="fill:url(#SVGID_00000000907237130347919610000018222956474453268926_);" d="M287.65,253.9
				c-17.21,0-33.76-2.31-49.63-6.91c-15.88-4.61-28.63-10.6-38.26-17.98l16.9-37.49c9.01,6.56,19.87,11.94,32.57,16.13
				c12.7,4.2,25.5,6.3,38.41,6.3c9.83,0,17.77-1.02,23.82-3.07c6.04-2.05,10.5-4.76,13.37-8.14c2.87-3.38,4.3-7.32,4.3-11.83
				c0-5.73-2.26-10.29-6.76-13.68c-4.51-3.38-10.5-6.15-17.98-8.3c-7.48-2.15-15.62-4.2-24.43-6.15c-8.81-1.95-17.67-4.3-26.58-7.07
				s-17.11-6.45-24.58-11.06c-7.48-4.61-13.42-10.65-17.82-18.13c-4.41-7.48-6.61-16.85-6.61-28.12c0-12.29,3.28-23.51,9.83-33.65
				c6.56-10.14,16.54-18.23,29.96-24.28c13.41-6.04,30.27-9.07,50.55-9.07c13.52,0,26.89,1.64,40.1,4.92
				c13.21,3.28,24.74,7.99,34.57,14.14l-15.67,37.49c-9.63-5.53-19.57-9.68-29.81-12.45c-10.25-2.77-20.08-4.15-29.5-4.15
				c-9.83,0-17.72,1.08-23.66,3.23c-5.94,2.15-10.29,5.07-13.06,8.76c-2.77,3.69-4.15,7.79-4.15,12.29c0,5.74,2.25,10.35,6.76,13.83
				c4.5,3.49,10.45,6.2,17.82,8.14c7.38,1.95,15.57,3.89,24.59,5.84c9.01,1.95,17.92,4.35,26.73,7.22
				c8.81,2.87,16.9,6.51,24.28,10.91c7.37,4.41,13.37,10.35,17.98,17.82c4.61,7.48,6.91,16.75,6.91,27.81
				c0,12.09-3.33,23.15-9.99,33.19c-6.66,10.04-16.75,18.13-30.27,24.28C324.84,250.83,307.93,253.9,287.65,253.9z"/>
			
				<linearGradient id="SVGID_00000059995494525340920890000013472025422604897186_" gradientUnits="userSpaceOnUse" x1="17.6924" y1="131.1387" x2="1212" y2="131.1387">
				<stop  offset="0" style="stop-color:#2F4550"/>
				<stop  offset="1" style="stop-color:#586F7C"/>
			</linearGradient>
			<path style="fill:url(#SVGID_00000059995494525340920890000013472025422604897186_);" d="M491.39,252.68
				c-18.85,0-35.34-3.69-49.47-11.06c-14.14-7.37-25.1-17.46-32.88-30.27c-7.79-12.8-11.68-27.4-11.68-43.79
				c0-16.39,3.73-31.04,11.22-43.94c7.48-12.91,17.92-22.99,31.35-30.27c13.41-7.27,28.53-10.91,45.33-10.91
				c16.18,0,30.78,3.49,43.79,10.45c13.01,6.97,23.3,16.8,30.88,29.5c7.58,12.71,11.37,27.96,11.37,45.79c0,1.84-0.1,3.95-0.31,6.3
				c-0.21,2.36-0.41,4.56-0.61,6.61H436.07v-27.96h109.09l-18.74,8.3c0.2-8.6-1.44-16.08-4.92-22.43
				c-3.49-6.35-8.3-11.32-14.44-14.9c-6.15-3.58-13.32-5.38-21.51-5.38c-8.2,0-15.42,1.8-21.66,5.38
				c-6.25,3.59-11.12,8.6-14.6,15.06c-3.49,6.45-5.22,14.09-5.22,22.89v7.38c0,9.22,2.05,17.21,6.15,23.97
				c4.1,6.76,9.73,11.94,16.9,15.52c7.17,3.59,15.77,5.38,25.81,5.38c8.6,0,16.23-1.33,22.9-4c6.65-2.66,12.75-6.65,18.28-11.98
				l25.51,27.66c-7.58,8.6-17.11,15.21-28.58,19.82C519.55,250.37,506.34,252.68,491.39,252.68z"/>
			
				<linearGradient id="SVGID_00000137098550731814836840000013955645114244144042_" gradientUnits="userSpaceOnUse" x1="17.6924" y1="131.1387" x2="1212" y2="131.1387">
				<stop  offset="0" style="stop-color:#2F4550"/>
				<stop  offset="1" style="stop-color:#586F7C"/>
			</linearGradient>
			<path style="fill:url(#SVGID_00000137098550731814836840000013955645114244144042_);" d="M703.73,82.43
				c13.11,0,24.84,2.61,35.19,7.84c10.34,5.22,18.48,13.21,24.43,23.97c5.94,10.76,8.91,24.54,8.91,41.33v94.65h-47.94v-87.27
				c0-13.31-2.92-23.15-8.76-29.5c-5.84-6.35-14.09-9.53-24.74-9.53c-7.58,0-14.4,1.64-20.44,4.92c-6.04,3.28-10.76,8.1-14.14,14.44
				c-3.38,6.35-5.07,14.75-5.07,25.2v81.74h-47.94V84.89h45.79v45.79l-8.6-13.83c5.94-11.06,14.44-19.56,25.51-25.51
				C677,85.4,689.6,82.43,703.73,82.43z"/>
			
				<linearGradient id="SVGID_00000030448389591512794820000017495157214103579317_" gradientUnits="userSpaceOnUse" x1="17.6924" y1="131.1387" x2="1212" y2="131.1387">
				<stop  offset="0" style="stop-color:#2F4550"/>
				<stop  offset="1" style="stop-color:#586F7C"/>
			</linearGradient>
			<path style="fill:url(#SVGID_00000030448389591512794820000017495157214103579317_);" d="M839.56,61.84
				c-9.02,0-16.29-2.56-21.82-7.68c-5.53-5.12-8.3-11.47-8.3-19.05c0-7.58,2.76-13.93,8.3-19.05c5.53-5.12,12.8-7.68,21.82-7.68
				c8.81,0,16.03,2.41,21.66,7.22c5.63,4.82,8.45,11.01,8.45,18.59c0,7.99-2.77,14.6-8.3,19.82
				C855.84,59.23,848.57,61.84,839.56,61.84z M815.59,250.22V84.89h47.94v165.33H815.59z"/>
			
				<linearGradient id="SVGID_00000124141245974773085700000005652989349714310574_" gradientUnits="userSpaceOnUse" x1="17.6924" y1="131.1387" x2="1212" y2="131.1387">
				<stop  offset="0" style="stop-color:#2F4550"/>
				<stop  offset="1" style="stop-color:#586F7C"/>
			</linearGradient>
			<path style="fill:url(#SVGID_00000124141245974773085700000005652989349714310574_);" d="M986.44,252.68
				c-17.41,0-32.93-3.69-46.55-11.06c-13.63-7.37-24.33-17.46-32.11-30.27c-7.79-12.8-11.68-27.4-11.68-43.79
				c0-16.59,3.89-31.29,11.68-44.1c7.78-12.8,18.49-22.84,32.11-30.11c13.62-7.27,29.14-10.91,46.55-10.91
				c17.62,0,33.29,3.64,47.02,10.91c13.72,7.27,24.48,17.31,32.27,30.11c7.78,12.81,11.68,27.5,11.68,44.1s-3.9,31.24-11.68,43.94
				c-7.79,12.71-18.54,22.74-32.27,30.12C1019.73,248.99,1004.06,252.68,986.44,252.68z M986.44,213.34
				c8.19,0,15.41-1.79,21.67-5.38c6.25-3.58,11.26-8.86,15.06-15.83c3.79-6.96,5.68-15.16,5.68-24.58c0-9.63-1.9-17.82-5.68-24.58
				c-3.79-6.76-8.81-11.93-15.06-15.52c-6.25-3.58-13.37-5.38-21.36-5.38c-7.99,0-15.16,1.8-21.51,5.38
				c-6.35,3.59-11.42,8.76-15.21,15.52c-3.79,6.76-5.69,14.96-5.69,24.58c0,9.43,1.89,17.62,5.69,24.58
				c3.79,6.97,8.86,12.24,15.21,15.83C971.59,211.55,978.65,213.34,986.44,213.34z"/>
			
				<linearGradient id="SVGID_00000160910713811026686390000004317571025879150987_" gradientUnits="userSpaceOnUse" x1="17.6924" y1="131.1387" x2="1212" y2="131.1387">
				<stop  offset="0" style="stop-color:#2F4550"/>
				<stop  offset="1" style="stop-color:#586F7C"/>
			</linearGradient>
			<path style="fill:url(#SVGID_00000160910713811026686390000004317571025879150987_);" d="M1109.36,250.22V84.89h45.79v47.02
				l-6.45-13.83c4.92-11.68,12.8-20.54,23.66-26.58c10.85-6.04,24.07-9.07,39.64-9.07v44.56c-1.84-0.41-3.64-0.72-5.38-0.92
				c-1.74-0.2-3.43-0.31-5.07-0.31c-13.52,0-24.28,3.79-32.27,11.37c-7.99,7.58-11.98,19.26-11.98,35.03v78.05H1109.36z"/>
			<g>
				<g>
					
						<linearGradient id="SVGID_00000046337118946007192350000009747260441820775090_" gradientUnits="userSpaceOnUse" x1="17.6924" y1="131.1387" x2="1212" y2="131.1387">
						<stop  offset="0" style="stop-color:#2F4550"/>
						<stop  offset="1" style="stop-color:#586F7C"/>
					</linearGradient>
					<path style="fill:url(#SVGID_00000046337118946007192350000009747260441820775090_);" d="M108.35,252.37
						c-18.23,0-34.16-3.63-47.78-10.91c-13.63-7.27-24.18-17.21-31.65-29.81c-7.48-12.6-11.22-27.09-11.22-43.48
						c0-16.39,3.63-30.88,10.91-43.48c7.27-12.6,17.31-22.53,30.12-29.81c12.8-7.27,27.4-10.91,43.79-10.91
						c15.98,0,30.22,3.53,42.72,10.6c12.49,7.07,22.33,16.96,29.5,29.65c7.17,12.71,10.76,27.76,10.76,45.17
						c0,1.43-0.05,3.23-0.15,5.38c-0.11,2.15-0.26,4.05-0.46,5.69H48.12v-25.51h116.47l-15.37,7.99c0.2-9.22-1.69-17.46-5.68-24.74
						c-4-7.27-9.48-12.91-16.44-16.9c-6.97-4-15.16-5.99-24.58-5.99c-9.22,0-17.47,2-24.74,5.99c-7.27,3.99-12.86,9.68-16.75,17.06
						c-3.89,7.37-5.84,15.88-5.84,25.51v6.15c0,9.83,2.2,18.54,6.61,26.12c4.4,7.58,10.7,13.47,18.9,17.67
						c8.19,4.2,17.72,6.3,28.58,6.3c9.22,0,17.51-1.54,24.89-4.61c7.38-3.07,13.93-7.58,19.67-13.52l20.9,23.97
						c-7.58,8.6-16.96,15.16-28.12,19.67C135.44,250.12,122.68,252.37,108.35,252.37z"/>
				</g>
				<g>
					
						<linearGradient id="SVGID_00000042720945525053226770000012819716418964864136_" gradientUnits="userSpaceOnUse" x1="17.6924" y1="131.1387" x2="1212" y2="131.1387">
						<stop  offset="0" style="stop-color:#2F4550"/>
						<stop  offset="1" style="stop-color:#586F7C"/>
					</linearGradient>
					<path style="fill:url(#SVGID_00000042720945525053226770000012819716418964864136_);" d="M108.35,252.37
						c-18.23,0-34.16-3.63-47.78-10.91c-13.63-7.27-24.18-17.21-31.65-29.81c-7.48-12.6-11.22-27.09-11.22-43.48
						c0-16.39,3.63-30.88,10.91-43.48c7.27-12.6,17.31-22.53,30.12-29.81c12.8-7.27,27.4-10.91,43.79-10.91
						c15.98,0,30.22,3.53,42.72,10.6c12.49,7.07,22.33,16.96,29.5,29.65c7.17,12.71,10.76,27.76,10.76,45.17
						c0,1.43-0.05,3.23-0.15,5.38c-0.11,2.15-0.26,4.05-0.46,5.69H48.12v-25.51h116.47l-15.37,7.99c0.2-9.22-1.69-17.46-5.68-24.74
						c-4-7.27-9.48-12.91-16.44-16.9c-6.97-4-15.16-5.99-24.58-5.99c-9.22,0-17.47,2-24.74,5.99c-7.27,3.99-12.86,9.68-16.75,17.06
						c-3.89,7.37-5.84,15.88-5.84,25.51v6.15c0,9.83,2.2,18.54,6.61,26.12c4.4,7.58,10.7,13.47,18.9,17.67
						c8.19,4.2,17.72,6.3,28.58,6.3c9.22,0,17.51-1.54,24.89-4.61c7.38-3.07,13.93-7.58,19.67-13.52l20.9,23.97
						c-7.58,8.6-16.96,15.16-28.12,19.67C135.44,250.12,122.68,252.37,108.35,252.37z"/>
				</g>
			</g>
		</g>
	</g>
</g>
</svg>
